<svg viewBox="0 0 669 96" xmlns="http://www.w3.org/2000/svg" fill-rule="evenodd" clip-rule="evenodd" stroke-linejoin="round" stroke-miterlimit="1.414"><path fill="none" d="M0 0H669.867V96.639H0z"/><g fill-rule="nonzero"><path d="M21.738,50.432c0,-14.986 8.788,-24.607 20.629,-24.607c9.159,0 16.282,5.736 17.947,14.617l10.453,0c-1.758,-14.339 -13.228,-23.127 -28.4,-23.127c-18.594,0 -31.082,13.228 -31.082,33.117c0,19.89 12.488,33.118 31.082,33.118c15.172,0 26.642,-8.788 28.4,-23.127l-10.453,0c-1.665,8.881 -8.788,14.617 -17.947,14.617c-11.841,0 -20.629,-9.621 -20.629,-24.608Z"/><path d="M119.889,82.533l10.453,0l-25.255,-64.201l-12.303,0l-25.162,64.201l10.176,0l6.475,-16.467l29.233,0l6.383,16.467Zm-21,-55.412l11.656,30.527l-23.312,0l11.656,-30.527Z"/><path d="M155.689,83.55c15.542,0 26.272,-8.418 26.272,-26.087l0,-39.131l-9.898,0l0,39.131c0,11.101 -6.383,17.484 -16.374,17.484c-9.898,0 -16.281,-6.383 -16.281,-17.484l0,-39.131l-9.898,0l0,39.131c0,17.669 10.73,26.087 26.179,26.087Z"/><path d="M188.437,82.533l43.571,0l0,-8.974l-33.673,0l0,-55.227l-9.898,0l0,64.201Z"/><path d="M234.968,82.533l9.899,0l0,-27.938l29.972,0l0,-8.603l-29.972,0l0,-18.964l34.135,0l0,-8.696l-44.034,0l0,64.201Z"/><path d="M281.777 18.332H291.675V82.53200000000001H281.777z"/><path d="M299.354,82.533l46.809,0l0,-8.789l-36.911,0l0,-19.796l33.025,0l0,-8.511l-33.025,0l0,-18.409l36.356,0l0,-8.696l-46.254,0l0,64.201Z"/><path d="M351.066,82.533l43.571,0l0,-8.974l-33.673,0l0,-55.227l-9.898,0l0,64.201Z"/><path d="M453.472,50.432c0,-18.686 -11.286,-32.1 -32.193,-32.1l-23.774,0l0,64.201l23.774,0c20.907,0 32.193,-13.321 32.193,-32.101Zm-10.454,0c0,14.432 -8.233,23.497 -22.017,23.497l-13.598,0l0,-46.994l13.598,0c13.784,0 22.017,9.066 22.017,23.497Z"/><path d="M454.027 70.784H465.775V82.53200000000001H454.027z"/><path d="M528.403,50.432c0,-18.686 -11.286,-32.1 -32.193,-32.1l-23.774,0l0,64.201l23.774,0c20.907,0 32.193,-13.321 32.193,-32.101Zm-10.453,0c0,14.432 -8.234,23.497 -22.017,23.497l-13.599,0l0,-46.994l13.599,0c13.783,0 22.017,9.066 22.017,23.497Z"/><path d="M532.473,82.533l46.809,0l0,-8.789l-36.91,0l0,-19.796l33.025,0l0,-8.511l-33.025,0l0,-18.409l36.355,0l0,-8.696l-46.254,0l0,64.201Z"/><path d="M588.626,18.332l-10.546,0l23.127,64.201l12.581,0l23.404,-64.201l-10.268,0l-19.334,54.025l-18.964,-54.025Z"/><path d="M636.36,30.728c0,7.401 6.105,13.321 13.691,13.321c7.493,0 13.691,-5.92 13.691,-13.321c0,-7.4 -6.198,-13.413 -13.691,-13.413c-7.586,0 -13.691,6.013 -13.691,13.413Zm6.568,0c0,-4.07 3.145,-7.585 7.123,-7.585c3.885,0 7.123,3.515 7.123,7.585c0,4.071 -3.238,7.493 -7.123,7.493c-3.978,0 -7.123,-3.422 -7.123,-7.493Z"/></g></svg>