<?xml version="1.0" encoding="UTF-8" standalone="no"?><!DOCTYPE svg PUBLIC "-//W3C//DTD SVG 1.1//EN" "http://www.w3.org/Graphics/SVG/1.1/DTD/svg11.dtd"><svg width="100%" height="100%" viewBox="0 0 493 57" version="1.1" xmlns="http://www.w3.org/2000/svg" xmlns:xlink="http://www.w3.org/1999/xlink" xml:space="preserve" xmlns:serif="http://www.serif.com/" style="fill-rule:evenodd;clip-rule:evenodd;stroke-linejoin:round;stroke-miterlimit:1.41421;"><rect id="Artboard1" x="0" y="-5" width="492.268" height="66.31" style="fill:none;"/><g><path d="M13.208,29.682c0,-11.1 6.51,-18.226 15.28,-18.226c6.784,0 12.06,4.248 13.294,10.826l7.743,0c-1.302,-10.621 -9.799,-17.13 -21.037,-17.13c-13.773,0 -23.023,9.798 -23.023,24.53c0,14.733 9.25,24.531 23.023,24.531c11.238,0 19.735,-6.509 21.037,-17.13l-7.743,0c-1.234,6.578 -6.51,10.826 -13.294,10.826c-8.77,0 -15.28,-7.126 -15.28,-18.227Z" style="fill:none;stroke:#000;stroke-width:1px;"/><path d="M85.91,53.459l7.743,0l-18.707,-47.554l-9.113,0l-18.638,47.554l7.537,0l4.797,-12.196l21.653,0l4.728,12.196Zm-15.555,-41.044l8.634,22.612l-17.268,0l8.634,-22.612Z" style="fill:none;stroke:#000;stroke-width:1px;"/><path d="M112.428,54.213c11.511,0 19.46,-6.235 19.46,-19.323l0,-28.985l-7.332,0l0,28.985c0,8.223 -4.728,12.951 -12.128,12.951c-7.332,0 -12.06,-4.728 -12.06,-12.951l0,-28.985l-7.332,0l0,28.985c0,13.088 7.948,19.323 19.392,19.323Z" style="fill:none;stroke:#000;stroke-width:1px;"/><path d="M136.684,53.459l32.274,0l0,-6.646l-24.942,0l0,-40.908l-7.332,0l0,47.554Z" style="fill:none;stroke:#000;stroke-width:1px;"/><path d="M171.151,53.459l7.331,0l0,-20.693l22.202,0l0,-6.373l-22.202,0l0,-14.047l25.285,0l0,-6.441l-32.616,0l0,47.554Z" style="fill:none;stroke:#000;stroke-width:1px;"/><rect x="205.823" y="5.905" width="7.332" height="47.554" style="fill:none;stroke:#000;stroke-width:1px;"/><path d="M218.842,53.459l34.672,0l0,-6.509l-27.34,0l0,-14.664l24.462,0l0,-6.304l-24.462,0l0,-13.636l26.929,0l0,-6.441l-34.261,0l0,47.554Z" style="fill:none;stroke:#000;stroke-width:1px;"/><path d="M257.145,53.459l32.274,0l0,-6.646l-24.942,0l0,-40.908l-7.332,0l0,47.554Z" style="fill:none;stroke:#000;stroke-width:1px;"/><path d="M332.999,29.682c0,-13.841 -8.36,-23.777 -23.846,-23.777l-17.61,0l0,47.554l17.61,0c15.486,0 23.846,-9.867 23.846,-23.777Zm-7.743,0c0,10.69 -6.098,17.405 -16.308,17.405l-10.073,0l0,-34.809l10.073,0c10.21,0 16.308,6.715 16.308,17.404Z" style="fill:none;stroke:#000;stroke-width:1px;"/><rect x="333.41" y="44.757" width="8.702" height="8.702" style="fill:none;stroke:#000;stroke-width:1px;"/><path d="M388.502,29.682c0,-13.841 -8.36,-23.777 -23.846,-23.777l-17.61,0l0,47.554l17.61,0c15.486,0 23.846,-9.867 23.846,-23.777Zm-7.743,0c0,10.69 -6.099,17.405 -16.308,17.405l-10.073,0l0,-34.809l10.073,0c10.209,0 16.308,6.715 16.308,17.404Z" style="fill:none;stroke:#000;stroke-width:1px;"/><path d="M391.517,53.459l34.672,0l0,-6.509l-27.341,0l0,-14.664l24.463,0l0,-6.304l-24.463,0l0,-13.636l26.93,0l0,-6.441l-34.261,0l0,47.554Z" style="fill:none;stroke:#000;stroke-width:1px;"/><path d="M433.109,5.905l-7.811,0l17.13,47.554l9.319,0l17.336,-47.554l-7.606,0l-14.321,40.017l-14.047,-40.017Z" style="fill:none;stroke:#000;stroke-width:1px;"/><path d="M468.467,15.087c0,5.482 4.522,9.867 10.141,9.867c5.55,0 10.141,-4.385 10.141,-9.867c0,-5.482 -4.591,-9.935 -10.141,-9.935c-5.619,0 -10.141,4.453 -10.141,9.935Zm4.865,0c0,-3.015 2.329,-5.619 5.276,-5.619c2.878,0 5.276,2.604 5.276,5.619c0,3.015 -2.398,5.55 -5.276,5.55c-2.947,0 -5.276,-2.535 -5.276,-5.55Z" style="fill:none;stroke:#000;stroke-width:1px;"/></g></svg>